Coordinates
version=1
nRows=16
nColumns=40
inDegrees=yes

Units are S.I. units (second, meters, Newtons, ...)
Angles are in degrees.

endheader
time	pelvis_tilt	pelvis_list	pelvis_rotation	pelvis_tx	pelvis_ty	pelvis_tz	hip_flexion_r	hip_adduction_r	hip_rotation_r	knee_angle_r	knee_angle_r_beta	ankle_angle_r	subtalar_angle_r	mtp_angle_r	hip_flexion_l	hip_adduction_l	hip_rotation_l	knee_angle_l	knee_angle_l_beta	ankle_angle_l	subtalar_angle_l	mtp_angle_l	lumbar_extension	lumbar_bending	lumbar_rotation	arm_flex_r	arm_add_r	arm_rot_r	elbow_flex_r	pro_sup_r	wrist_flex_r	wrist_dev_r	arm_flex_l	arm_add_l	arm_rot_l	elbow_flex_l	pro_sup_l	wrist_flex_l	wrist_dev_l
     57.97000000	     -5.39924885	     -4.83714408	      1.40025115	      0.86207292	      0.92895544	      0.38671870	     29.11868290	     -6.73605105	     -6.97637139	     63.80876829	     63.80876829	      1.08313881	    -17.19638131	      2.67606938	     15.98454291	     -3.22329514	     -4.64265476	     24.13691317	     24.13691317	     16.08333230	     -9.77210619	      3.45056391	    -10.03467629	      5.61025848	      2.48335998	     15.98194505	    -12.85714507	     -5.01451754	     38.13489197	     45.83743446	      0.00000000	      0.00000000	      2.95088958	    -11.99849532	     -9.77478981	     62.15560036	     46.38665368	      0.00000000	      0.00000000
     57.98278571	     -5.52544913	     -4.95021188	      1.24669287	      0.86154832	      0.92979088	      0.38664696	     29.97255440	     -6.55111777	     -7.28483440	     61.99210779	     61.99210779	      1.14489769	    -17.10571430	      1.68094359	     15.38333271	     -3.35910819	     -4.79864639	     23.60980165	     23.60980165	     16.15641291	     -9.61289235	      3.49579419	    -10.00804455	      5.67443619	      2.35504820	     14.66517779	    -12.96129036	     -4.63099655	     35.14471382	     45.92663017	      0.00000000	      0.00000000	      3.73486912	    -12.16893452	    -10.02712937	     62.84052117	     46.48685595	      0.00000000	      0.00000000
     57.99557143	     -5.58355925	     -5.06904982	      1.07730143	      0.86108820	      0.93068928	      0.38667096	     30.65612831	     -6.27978076	     -7.51821387	     60.01942387	     60.01942387	      1.44734618	    -16.85117529	      1.61429017	     14.68114838	     -3.53814585	     -5.10055087	     23.03821911	     23.03821911	     16.24648912	     -9.21797119	      3.42431210	    -10.10624801	      5.74404782	      2.45430675	     12.71202424	    -13.20179109	     -4.47097667	     33.77734705	     45.95846635	      0.00000000	      0.00000000	      4.57709694	    -12.27750443	    -10.29244115	     63.78568265	     46.53794396	      0.00000000	      0.00000000
     58.00835714	     -5.63642930	     -5.17083934	      0.91252698	      0.86064497	      0.93151894	      0.38673714	     31.21827109	     -5.99376066	     -7.72953553	     57.84788747	     57.84788747	      1.69148900	    -16.50239078	      1.51643830	     13.98691314	     -3.70983922	     -5.44741677	     22.48660708	     22.48660708	     16.31831979	     -8.75272423	      3.25524632	    -10.20257774	      5.80885051	      2.54654866	     10.89385974	    -13.39165791	     -4.23775904	     32.20298435	     45.99575586	      0.00000000	      0.00000000	      5.41615304	    -12.40795951	    -10.48858382	     64.72641264	     46.58376261	      0.00000000	      0.00000000
     58.02114286	     -5.71047712	     -5.22867205	      0.74509410	      0.86020569	      0.93222964	      0.38693856	     31.69535512	     -5.71670258	     -7.90903523	     55.47167476	     55.47167476	      1.84588827	    -16.08270733	      1.21603025	     13.33522198	     -3.85540124	     -5.87774546	     21.96155398	     21.96155398	     16.33300686	     -8.21085267	      2.90038550	    -10.28160819	      5.78678115	      2.58975477	      9.30111969	    -13.48012203	     -3.85534343	     30.18883670	     46.04514280	      0.00000000	      0.00000000	      6.20539499	    -12.61263724	    -10.64127009	     65.72303538	     46.63677585	      0.00000000	      0.00000000
     58.03392857	     -5.78042346	     -5.30233395	      0.60535694	      0.85982447	      0.93287024	      0.38717397	     32.01499898	     -5.41104309	     -8.11101472	     52.80813966	     52.80813966	      1.74496404	    -15.61652221	      0.33855144	     12.66890102	     -4.00356080	     -6.25802779	     21.39014855	     21.39014855	     16.17740757	     -7.74026402	      2.13132151	    -10.31942327	      5.83101373	      2.25730617	      8.30147904	    -13.41348025	     -3.11697649	     27.48359697	     46.11437238	      0.00000000	      0.00000000	      6.65747110	    -12.94123901	    -10.89752366	     66.84285022	     46.73474864	      0.00000000	      0.00000000
     58.04671429	     -5.86374955	     -5.31806754	      0.46608448	      0.85946039	      0.93346463	      0.38745436	     32.27415302	     -5.13541387	     -8.25723490	     50.00421532	     50.00421532	      1.98748215	    -14.80533092	      0.43368299	     12.00500990	     -4.04106632	     -6.47629641	     20.80203068	     20.80203068	     16.21398661	     -7.48454309	      2.13874913	    -10.36778332	      5.82146367	      2.18253242	      6.56912671	    -13.45225056	     -3.01090096	     26.59853472	     46.13166294	      0.00000000	      0.00000000	      7.38366386	    -13.07981220	    -11.19343386	     67.62409821	     46.78180212	      0.00000000	      0.00000000
     58.05950000	     -6.08811821	     -5.15466039	      0.32913836	      0.85894757	      0.93356215	      0.38789410	     32.68525748	     -4.97797601	     -8.22674344	     47.13868597	     47.13868597	      2.23601104	    -14.07324264	      0.61927961	     11.67456349	     -3.91055161	     -6.72933829	     20.53578402	     20.53578402	     16.24839899	     -7.35448325	      2.09805641	    -10.24000045	      5.57076567	      1.82446388	      4.98939102	    -13.27908906	     -2.95137631	     25.94605731	     46.14133473	      0.00000000	      0.00000000	      8.01983077	    -13.60132178	    -11.48340592	     68.12945046	     46.81840836	      0.00000000	      0.00000000
     58.07228571	     -5.96808013	     -5.15602637	      0.17007755	      0.85897348	      0.93428436	      0.38835642	     32.42498444	     -4.73644481	     -8.52316051	     43.85832254	     43.85832254	      2.44525217	    -12.56405580	      0.24934561	     10.59906918	     -3.95682693	     -7.15756157	     19.64619159	     19.64619159	     16.29551685	     -6.68685364	      1.87301553	    -10.50871086	      5.52378215	      2.33536790	      2.99975230	    -13.40704744	     -2.76045841	     24.88083496	     46.16146492	      0.00000000	      0.00000000	      8.96334221	    -13.27580430	    -11.80955824	     69.64809312	     46.88618713	      0.00000000	      0.00000000
     58.08507143	     -6.04549324	     -5.08210523	      0.07273252	      0.85884602	      0.93445118	      0.38888653	     32.31383616	     -4.52268620	     -8.76271174	     40.45449353	     40.45449353	      2.59223948	    -11.25270790	      0.10460869	      9.94560919	     -3.90989716	     -7.42148989	     19.10565132	     19.10565132	     16.34401671	     -6.33893221	      1.68433183	    -10.51440593	      5.43007374	      2.22552093	      1.32313565	    -13.35801267	     -2.67219146	     24.27726879	     46.16967616	      0.00000000	      0.00000000	      9.59141749	    -13.39817288	    -12.09430165	     70.60109835	     46.93626300	      0.00000000	      0.00000000
     58.09785714	     -6.11867897	     -4.97316723	     -0.00635016	      0.85883171	      0.93444116	      0.38948652	     32.07774025	     -4.34515832	     -9.08044285	     36.92677361	     36.92677361	      2.71689391	     -9.74607350	     -0.03397734	      9.26905413	     -3.82137597	     -7.66825944	     18.54186211	     18.54186211	     16.40552007	     -5.98163134	      1.48616729	    -10.50850169	      5.27699206	      2.15785248	     -0.41166480	    -13.27702906	     -2.61627643	     23.80503003	     46.17370044	      0.00000000	      0.00000000	     10.23019014	    -13.49419848	    -12.40050356	     71.64050666	     46.98898565	      0.00000000	      0.00000000
     58.11064286	     -6.17155927	     -4.80343258	     -0.08455558	      0.85895965	      0.93420898	      0.39019229	     31.72750832	     -4.23488252	     -9.51234809	     33.36904414	     33.36904414	      2.74815113	     -8.02767773	     -0.40623859	      8.54344180	     -3.67102434	     -7.96206175	     17.95394961	     17.95394961	     16.46513809	     -5.58352327	      1.13665075	    -10.50498517	      5.01833070	      2.15106160	     -2.24865532	    -13.13963602	     -2.60162020	     23.67208118	     46.16781768	      0.00000000	      0.00000000	     10.86850695	    -13.56522243	    -12.77698800	     72.92833524	     47.05700983	      0.00000000	      0.00000000
     58.12342857	     -6.38198547	     -4.70785320	     -0.11985906	      0.85908269	      0.93356299	      0.39102979	     31.44042456	     -3.96335936	     -9.88059994	     29.78598720	     29.78598720	      2.75927608	     -6.66642436	     -0.07457726	      8.07256773	     -3.59298281	     -8.07046055	     17.50960667	     17.50960667	     16.60845858	     -5.37114113	      0.97667020	    -10.23175215	      4.90397853	      1.90943893	     -3.81761813	    -12.94568214	     -2.60466023	     23.37593828	     46.16766603	      0.00000000	      0.00000000	     11.40430511	    -13.78084877	    -13.02127424	     73.69921339	     47.09652904	      0.00000000	      0.00000000
     58.13621429	     -6.29506495	     -4.52605410	     -0.10570764	      0.85959157	      0.93303065	      0.39173039	     30.74523953	     -3.92947394	    -10.77213505	     26.39251888	     26.39251888	      2.82318042	     -4.50931145	     -0.17238689	      7.15274729	     -3.42072954	     -8.32884105	     16.87915642	     16.87915642	     16.67834959	     -4.89768792	      0.37868791	    -10.37622346	      4.68631822	      1.99922650	     -5.86073566	    -12.91746092	     -2.79306912	     23.98388263	     46.14705118	      0.00000000	      0.00000000	     11.92627971	    -13.65732095	    -13.39011644	     75.30157338	     47.17774929	      0.00000000	      0.00000000
     58.14900000	     -6.35826680	     -4.43557522	     -0.06944124	      0.86010377	      0.93211325	      0.39266963	     30.18923700	     -3.65018318	    -11.32353043	     23.21515125	     23.21515125	      2.74516547	     -3.24578666	      0.47505232	      6.52389419	     -3.34880721	     -8.35132421	     16.49095194	     16.49095194	     16.92537726	     -4.71738312	      0.13236248	    -10.19469676	      4.58334346	      1.81697657	     -7.36751015	    -12.76255221	     -2.84156012	     23.82764073	     46.14582780	      0.00000000	      0.00000000	     12.45660682	    -13.79873249	    -13.58411948	     76.07482861	     47.21560161	      0.00000000	      0.00000000
     58.16178571	     -6.39442889	     -4.33711057	     -0.02958008	      0.86080048	      0.93100102	      0.39367708	     29.60347686	     -3.41823172	    -12.03430631	     20.44301201	     20.44301201	      2.79195235	     -1.83593725	      1.17695776	      5.80375719	     -3.27244016	     -8.43163951	     16.01243750	     16.01243750	     17.16715619	     -4.44706962	     -0.14833707	    -10.07093996	      4.48389273	      1.77526359	     -8.83908077	    -12.57114222	     -2.92197411	     23.79058880	     46.14193188	      0.00000000	      0.00000000	     12.97964648	    -13.81736739	    -13.76135964	     77.00811662	     47.25490828	      0.00000000	      0.00000000
